<mxfile host="65bd71144e">
    <diagram id="Ea152XI7zLuFkRaPaWBX" name="interface">
        <mxGraphModel dx="1232" dy="768" grid="1" gridSize="10" guides="1" tooltips="1" connect="1" arrows="1" fold="1" page="1" pageScale="1" pageWidth="827" pageHeight="1169" math="0" shadow="0">
            <root>
                <mxCell id="0"/>
                <mxCell id="1" parent="0"/>
                <mxCell id="116" value="" style="group;fontStyle=5" vertex="1" connectable="0" parent="1">
                    <mxGeometry x="60" y="310" width="680" height="440" as="geometry"/>
                </mxCell>
                <mxCell id="115" value="" style="group" vertex="1" connectable="0" parent="116">
                    <mxGeometry width="680" height="440" as="geometry"/>
                </mxCell>
                <mxCell id="2" value="" style="rounded=0;whiteSpace=wrap;html=1;" vertex="1" parent="115">
                    <mxGeometry width="680" height="440" as="geometry"/>
                </mxCell>
                <mxCell id="4" value="" style="rounded=0;whiteSpace=wrap;html=1;fontColor=#FFB366;" vertex="1" parent="115">
                    <mxGeometry width="60" height="440" as="geometry"/>
                </mxCell>
                <mxCell id="10" value="self" style="shape=umlActor;verticalLabelPosition=bottom;verticalAlign=top;html=1;outlineConnect=0;fontColor=#FFB366;" vertex="1" parent="115">
                    <mxGeometry x="20" y="185" width="30" height="30" as="geometry"/>
                </mxCell>
                <mxCell id="11" value="setup" style="shape=image;html=1;verticalLabelPosition=bottom;verticalAlign=top;imageAspect=0;image=img/clipart/Gear_128x128.png;fontColor=#FFB366;" vertex="1" parent="115">
                    <mxGeometry x="12.5" y="347.5" width="35" height="35" as="geometry"/>
                </mxCell>
                <mxCell id="12" value="" style="rounded=0;whiteSpace=wrap;html=1;fontColor=#FFB366;dashed=1;" vertex="1" parent="115">
                    <mxGeometry x="60" width="90" height="420" as="geometry"/>
                </mxCell>
                <mxCell id="13" value="" style="rounded=0;whiteSpace=wrap;html=1;dashed=1;fontColor=#FFB366;" vertex="1" parent="115">
                    <mxGeometry x="60" y="310" width="90" height="130" as="geometry"/>
                </mxCell>
                <mxCell id="14" value="" style="rounded=0;whiteSpace=wrap;html=1;dashed=1;fontColor=#FFB366;" vertex="1" parent="115">
                    <mxGeometry x="60" width="90" height="110" as="geometry"/>
                </mxCell>
                <mxCell id="15" value="" style="group" vertex="1" connectable="0" parent="115">
                    <mxGeometry x="5" y="20" width="60" height="60" as="geometry"/>
                </mxCell>
                <mxCell id="8" value="" style="group" vertex="1" connectable="0" parent="15">
                    <mxGeometry x="15" width="30" height="39.44444444444446" as="geometry"/>
                </mxCell>
                <mxCell id="5" value="" style="whiteSpace=wrap;html=1;aspect=fixed;fontColor=#FFB366;" vertex="1" parent="8">
                    <mxGeometry x="5.273333333333326" y="20" width="19.444444444444443" height="19.444444444444443" as="geometry"/>
                </mxCell>
                <mxCell id="6" value="" style="shape=trapezoid;perimeter=trapezoidPerimeter;whiteSpace=wrap;html=1;fixedSize=1;fontColor=#FFB366;" vertex="1" parent="8">
                    <mxGeometry width="30" height="20" as="geometry"/>
                </mxCell>
                <mxCell id="9" value="caupo" style="text;html=1;strokeColor=none;fillColor=none;align=center;verticalAlign=middle;whiteSpace=wrap;rounded=0;fontColor=#FFB366;" vertex="1" parent="15">
                    <mxGeometry y="30" width="60" height="30" as="geometry"/>
                </mxCell>
                <mxCell id="16" value="..." style="text;html=1;strokeColor=none;fillColor=none;align=center;verticalAlign=middle;whiteSpace=wrap;rounded=0;dashed=1;fontColor=#FFB366;" vertex="1" parent="115">
                    <mxGeometry x="60" width="60" height="30" as="geometry"/>
                </mxCell>
                <mxCell id="17" value="..." style="text;html=1;strokeColor=none;fillColor=none;align=center;verticalAlign=middle;whiteSpace=wrap;rounded=0;dashed=1;fontColor=#FFB366;" vertex="1" parent="115">
                    <mxGeometry x="60" y="110" width="60" height="30" as="geometry"/>
                </mxCell>
                <mxCell id="18" value="..." style="text;html=1;strokeColor=none;fillColor=none;align=center;verticalAlign=middle;whiteSpace=wrap;rounded=0;dashed=1;fontColor=#FFB366;" vertex="1" parent="115">
                    <mxGeometry x="60" y="310" width="60" height="30" as="geometry"/>
                </mxCell>
                <mxCell id="20" value="&lt;u&gt;expenses&lt;/u&gt;" style="text;html=1;strokeColor=none;fillColor=none;align=center;verticalAlign=middle;whiteSpace=wrap;rounded=0;dashed=1;fontColor=#FFB366;" vertex="1" parent="115">
                    <mxGeometry x="75" y="140" width="60" height="30" as="geometry"/>
                </mxCell>
                <mxCell id="21" value="income" style="text;html=1;strokeColor=none;fillColor=none;align=center;verticalAlign=middle;whiteSpace=wrap;rounded=0;dashed=1;fontColor=#FFB366;" vertex="1" parent="115">
                    <mxGeometry x="75" y="180" width="60" height="30" as="geometry"/>
                </mxCell>
                <mxCell id="23" value="expenses" style="swimlane;dashed=1;fontColor=#FFB366;startSize=20;" vertex="1" parent="116">
                    <mxGeometry x="150" width="530" height="440" as="geometry">
                        <mxRectangle x="230" y="260" width="90" height="20" as="alternateBounds"/>
                    </mxGeometry>
                </mxCell>
                <mxCell id="110" value="" style="group" vertex="1" connectable="0" parent="23">
                    <mxGeometry x="-150" y="-20" width="680" height="440" as="geometry"/>
                </mxCell>
                <mxCell id="3" value="&lt;b&gt;&lt;font color=&quot;#ffb366&quot;&gt;Pro&lt;/font&gt;mus&lt;/b&gt;" style="rounded=0;whiteSpace=wrap;html=1;" vertex="1" parent="110">
                    <mxGeometry width="680" height="20" as="geometry"/>
                </mxCell>
                <mxCell id="108" value="" style="group" vertex="1" connectable="0" parent="23">
                    <mxGeometry x="10" y="40" width="520" height="500" as="geometry"/>
                </mxCell>
                <mxCell id="51" value="" style="group" vertex="1" connectable="0" parent="108">
                    <mxGeometry x="10" y="50" width="510" height="450" as="geometry"/>
                </mxCell>
                <mxCell id="32" value="Food" style="shape=table;startSize=30;container=1;collapsible=0;childLayout=tableLayout;fontStyle=1;align=center;pointerEvents=1;fontColor=#FFB366;resizeHeight=1;resizeWidth=1;" vertex="1" parent="51">
                    <mxGeometry width="240" height="75" as="geometry"/>
                </mxCell>
                <mxCell id="33" value="" style="shape=partialRectangle;html=1;whiteSpace=wrap;collapsible=0;dropTarget=0;pointerEvents=0;fillColor=none;top=0;left=0;bottom=0;right=0;points=[[0,0.5],[1,0.5]];portConstraint=eastwest;fontColor=#FFB366;strokeColor=#FFB366;" vertex="1" parent="32">
                    <mxGeometry y="30" width="240" height="15" as="geometry"/>
                </mxCell>
                <mxCell id="34" value="Total Price" style="shape=partialRectangle;html=1;whiteSpace=wrap;connectable=0;fillColor=none;top=0;left=0;bottom=0;right=0;overflow=hidden;pointerEvents=1;fontColor=#FFB366;" vertex="1" parent="33">
                    <mxGeometry width="81" height="15" as="geometry">
                        <mxRectangle width="81" height="15" as="alternateBounds"/>
                    </mxGeometry>
                </mxCell>
                <mxCell id="35" value="Average Price" style="shape=partialRectangle;html=1;whiteSpace=wrap;connectable=0;fillColor=none;top=0;left=0;bottom=0;right=0;overflow=hidden;pointerEvents=1;fontColor=#FFB366;" vertex="1" parent="33">
                    <mxGeometry x="81" width="78" height="15" as="geometry">
                        <mxRectangle width="78" height="15" as="alternateBounds"/>
                    </mxGeometry>
                </mxCell>
                <mxCell id="36" value="yada yada" style="shape=partialRectangle;html=1;whiteSpace=wrap;connectable=0;fillColor=none;top=0;left=0;bottom=0;right=0;overflow=hidden;pointerEvents=1;fontColor=#FFB366;" vertex="1" parent="33">
                    <mxGeometry x="159" width="81" height="15" as="geometry">
                        <mxRectangle width="81" height="15" as="alternateBounds"/>
                    </mxGeometry>
                </mxCell>
                <mxCell id="37" value="" style="shape=partialRectangle;html=1;whiteSpace=wrap;collapsible=0;dropTarget=0;pointerEvents=0;fillColor=none;top=0;left=0;bottom=0;right=0;points=[[0,0.5],[1,0.5]];portConstraint=eastwest;fontColor=#FFB366;" vertex="1" parent="32">
                    <mxGeometry y="45" width="240" height="15" as="geometry"/>
                </mxCell>
                <mxCell id="38" value="Most Expensive Food" style="shape=partialRectangle;html=1;whiteSpace=wrap;connectable=0;fillColor=none;top=0;left=0;bottom=0;right=0;overflow=hidden;pointerEvents=1;fontColor=#FFB366;" vertex="1" parent="37">
                    <mxGeometry width="81" height="15" as="geometry">
                        <mxRectangle width="81" height="15" as="alternateBounds"/>
                    </mxGeometry>
                </mxCell>
                <mxCell id="39" value="Price" style="shape=partialRectangle;html=1;whiteSpace=wrap;connectable=0;fillColor=none;top=0;left=0;bottom=0;right=0;overflow=hidden;pointerEvents=1;fontColor=#FFB366;" vertex="1" parent="37">
                    <mxGeometry x="81" width="78" height="15" as="geometry">
                        <mxRectangle width="78" height="15" as="alternateBounds"/>
                    </mxGeometry>
                </mxCell>
                <mxCell id="40" value="??" style="shape=partialRectangle;html=1;whiteSpace=wrap;connectable=0;fillColor=none;top=0;left=0;bottom=0;right=0;overflow=hidden;pointerEvents=1;fontColor=#FFB366;" vertex="1" parent="37">
                    <mxGeometry x="159" width="81" height="15" as="geometry">
                        <mxRectangle width="81" height="15" as="alternateBounds"/>
                    </mxGeometry>
                </mxCell>
                <mxCell id="41" value="" style="shape=partialRectangle;html=1;whiteSpace=wrap;collapsible=0;dropTarget=0;pointerEvents=0;fillColor=none;top=0;left=0;bottom=0;right=0;points=[[0,0.5],[1,0.5]];portConstraint=eastwest;fontColor=#FFB366;" vertex="1" parent="32">
                    <mxGeometry y="60" width="240" height="15" as="geometry"/>
                </mxCell>
                <mxCell id="42" value="" style="shape=partialRectangle;html=1;whiteSpace=wrap;connectable=0;fillColor=none;top=0;left=0;bottom=0;right=0;overflow=hidden;pointerEvents=1;fontColor=#FFB366;" vertex="1" parent="41">
                    <mxGeometry width="81" height="15" as="geometry">
                        <mxRectangle width="81" height="15" as="alternateBounds"/>
                    </mxGeometry>
                </mxCell>
                <mxCell id="43" value="" style="shape=partialRectangle;html=1;whiteSpace=wrap;connectable=0;fillColor=none;top=0;left=0;bottom=0;right=0;overflow=hidden;pointerEvents=1;fontColor=#FFB366;" vertex="1" parent="41">
                    <mxGeometry x="81" width="78" height="15" as="geometry">
                        <mxRectangle width="78" height="15" as="alternateBounds"/>
                    </mxGeometry>
                </mxCell>
                <mxCell id="44" value="" style="shape=partialRectangle;html=1;whiteSpace=wrap;connectable=0;fillColor=none;top=0;left=0;bottom=0;right=0;overflow=hidden;pointerEvents=1;fontColor=#FFB366;" vertex="1" parent="41">
                    <mxGeometry x="159" width="81" height="15" as="geometry">
                        <mxRectangle width="81" height="15" as="alternateBounds"/>
                    </mxGeometry>
                </mxCell>
                <mxCell id="50" value="open for edit" style="text;html=1;strokeColor=none;fillColor=none;align=center;verticalAlign=middle;whiteSpace=wrap;rounded=0;fontColor=#FFB366;" vertex="1" parent="51">
                    <mxGeometry x="5.45" y="75" width="74.55" height="25" as="geometry"/>
                </mxCell>
                <mxCell id="52" value="" style="group" vertex="1" connectable="0" parent="51">
                    <mxGeometry x="260" width="240" height="100" as="geometry"/>
                </mxCell>
                <mxCell id="53" value="Transportation" style="shape=table;startSize=30;container=1;collapsible=0;childLayout=tableLayout;fontStyle=1;align=center;pointerEvents=1;fontColor=#FFB366;resizeHeight=1;resizeWidth=1;" vertex="1" parent="52">
                    <mxGeometry width="240.00000000000003" height="75" as="geometry"/>
                </mxCell>
                <mxCell id="54" value="" style="shape=partialRectangle;html=1;whiteSpace=wrap;collapsible=0;dropTarget=0;pointerEvents=0;fillColor=none;top=0;left=0;bottom=0;right=0;points=[[0,0.5],[1,0.5]];portConstraint=eastwest;fontColor=#FFB366;strokeColor=#FFB366;" vertex="1" parent="53">
                    <mxGeometry y="30" width="240.00000000000003" height="15" as="geometry"/>
                </mxCell>
                <mxCell id="55" value="" style="shape=partialRectangle;html=1;whiteSpace=wrap;connectable=0;fillColor=none;top=0;left=0;bottom=0;right=0;overflow=hidden;pointerEvents=1;fontColor=#FFB366;" vertex="1" parent="54">
                    <mxGeometry width="81" height="15" as="geometry">
                        <mxRectangle width="81" height="15" as="alternateBounds"/>
                    </mxGeometry>
                </mxCell>
                <mxCell id="56" value="" style="shape=partialRectangle;html=1;whiteSpace=wrap;connectable=0;fillColor=none;top=0;left=0;bottom=0;right=0;overflow=hidden;pointerEvents=1;fontColor=#FFB366;" vertex="1" parent="54">
                    <mxGeometry x="81" width="78" height="15" as="geometry">
                        <mxRectangle width="78" height="15" as="alternateBounds"/>
                    </mxGeometry>
                </mxCell>
                <mxCell id="57" value="" style="shape=partialRectangle;html=1;whiteSpace=wrap;connectable=0;fillColor=none;top=0;left=0;bottom=0;right=0;overflow=hidden;pointerEvents=1;fontColor=#FFB366;" vertex="1" parent="54">
                    <mxGeometry x="159" width="81" height="15" as="geometry">
                        <mxRectangle width="81" height="15" as="alternateBounds"/>
                    </mxGeometry>
                </mxCell>
                <mxCell id="58" value="" style="shape=partialRectangle;html=1;whiteSpace=wrap;collapsible=0;dropTarget=0;pointerEvents=0;fillColor=none;top=0;left=0;bottom=0;right=0;points=[[0,0.5],[1,0.5]];portConstraint=eastwest;fontColor=#FFB366;" vertex="1" parent="53">
                    <mxGeometry y="45" width="240.00000000000003" height="15" as="geometry"/>
                </mxCell>
                <mxCell id="59" value="" style="shape=partialRectangle;html=1;whiteSpace=wrap;connectable=0;fillColor=none;top=0;left=0;bottom=0;right=0;overflow=hidden;pointerEvents=1;fontColor=#FFB366;" vertex="1" parent="58">
                    <mxGeometry width="81" height="15" as="geometry">
                        <mxRectangle width="81" height="15" as="alternateBounds"/>
                    </mxGeometry>
                </mxCell>
                <mxCell id="60" value="" style="shape=partialRectangle;html=1;whiteSpace=wrap;connectable=0;fillColor=none;top=0;left=0;bottom=0;right=0;overflow=hidden;pointerEvents=1;fontColor=#FFB366;" vertex="1" parent="58">
                    <mxGeometry x="81" width="78" height="15" as="geometry">
                        <mxRectangle width="78" height="15" as="alternateBounds"/>
                    </mxGeometry>
                </mxCell>
                <mxCell id="61" value="" style="shape=partialRectangle;html=1;whiteSpace=wrap;connectable=0;fillColor=none;top=0;left=0;bottom=0;right=0;overflow=hidden;pointerEvents=1;fontColor=#FFB366;" vertex="1" parent="58">
                    <mxGeometry x="159" width="81" height="15" as="geometry">
                        <mxRectangle width="81" height="15" as="alternateBounds"/>
                    </mxGeometry>
                </mxCell>
                <mxCell id="62" value="" style="shape=partialRectangle;html=1;whiteSpace=wrap;collapsible=0;dropTarget=0;pointerEvents=0;fillColor=none;top=0;left=0;bottom=0;right=0;points=[[0,0.5],[1,0.5]];portConstraint=eastwest;fontColor=#FFB366;" vertex="1" parent="53">
                    <mxGeometry y="60" width="240.00000000000003" height="15" as="geometry"/>
                </mxCell>
                <mxCell id="63" value="" style="shape=partialRectangle;html=1;whiteSpace=wrap;connectable=0;fillColor=none;top=0;left=0;bottom=0;right=0;overflow=hidden;pointerEvents=1;fontColor=#FFB366;" vertex="1" parent="62">
                    <mxGeometry width="81" height="15" as="geometry">
                        <mxRectangle width="81" height="15" as="alternateBounds"/>
                    </mxGeometry>
                </mxCell>
                <mxCell id="64" value="" style="shape=partialRectangle;html=1;whiteSpace=wrap;connectable=0;fillColor=none;top=0;left=0;bottom=0;right=0;overflow=hidden;pointerEvents=1;fontColor=#FFB366;" vertex="1" parent="62">
                    <mxGeometry x="81" width="78" height="15" as="geometry">
                        <mxRectangle width="78" height="15" as="alternateBounds"/>
                    </mxGeometry>
                </mxCell>
                <mxCell id="65" value="" style="shape=partialRectangle;html=1;whiteSpace=wrap;connectable=0;fillColor=none;top=0;left=0;bottom=0;right=0;overflow=hidden;pointerEvents=1;fontColor=#FFB366;" vertex="1" parent="62">
                    <mxGeometry x="159" width="81" height="15" as="geometry">
                        <mxRectangle width="81" height="15" as="alternateBounds"/>
                    </mxGeometry>
                </mxCell>
                <mxCell id="66" value="open for edit" style="text;html=1;strokeColor=none;fillColor=none;align=center;verticalAlign=middle;whiteSpace=wrap;rounded=0;fontColor=#FFB366;" vertex="1" parent="52">
                    <mxGeometry x="5.45" y="75" width="74.55" height="25" as="geometry"/>
                </mxCell>
                <mxCell id="67" value="" style="group" vertex="1" connectable="0" parent="51">
                    <mxGeometry y="100" width="240" height="100" as="geometry"/>
                </mxCell>
                <mxCell id="68" value="Hobbies" style="shape=table;startSize=30;container=1;collapsible=0;childLayout=tableLayout;fontStyle=1;align=center;pointerEvents=1;fontColor=#FFB366;resizeHeight=1;resizeWidth=1;" vertex="1" parent="67">
                    <mxGeometry width="240" height="75" as="geometry"/>
                </mxCell>
                <mxCell id="69" value="" style="shape=partialRectangle;html=1;whiteSpace=wrap;collapsible=0;dropTarget=0;pointerEvents=0;fillColor=none;top=0;left=0;bottom=0;right=0;points=[[0,0.5],[1,0.5]];portConstraint=eastwest;fontColor=#FFB366;strokeColor=#FFB366;" vertex="1" parent="68">
                    <mxGeometry y="30" width="240" height="15" as="geometry"/>
                </mxCell>
                <mxCell id="70" value="" style="shape=partialRectangle;html=1;whiteSpace=wrap;connectable=0;fillColor=none;top=0;left=0;bottom=0;right=0;overflow=hidden;pointerEvents=1;fontColor=#FFB366;" vertex="1" parent="69">
                    <mxGeometry width="80" height="15" as="geometry">
                        <mxRectangle width="80" height="15" as="alternateBounds"/>
                    </mxGeometry>
                </mxCell>
                <mxCell id="71" value="" style="shape=partialRectangle;html=1;whiteSpace=wrap;connectable=0;fillColor=none;top=0;left=0;bottom=0;right=0;overflow=hidden;pointerEvents=1;fontColor=#FFB366;" vertex="1" parent="69">
                    <mxGeometry x="80" width="80" height="15" as="geometry">
                        <mxRectangle width="80" height="15" as="alternateBounds"/>
                    </mxGeometry>
                </mxCell>
                <mxCell id="72" value="" style="shape=partialRectangle;html=1;whiteSpace=wrap;connectable=0;fillColor=none;top=0;left=0;bottom=0;right=0;overflow=hidden;pointerEvents=1;fontColor=#FFB366;" vertex="1" parent="69">
                    <mxGeometry x="160" width="80" height="15" as="geometry">
                        <mxRectangle width="80" height="15" as="alternateBounds"/>
                    </mxGeometry>
                </mxCell>
                <mxCell id="73" value="" style="shape=partialRectangle;html=1;whiteSpace=wrap;collapsible=0;dropTarget=0;pointerEvents=0;fillColor=none;top=0;left=0;bottom=0;right=0;points=[[0,0.5],[1,0.5]];portConstraint=eastwest;fontColor=#FFB366;" vertex="1" parent="68">
                    <mxGeometry y="45" width="240" height="15" as="geometry"/>
                </mxCell>
                <mxCell id="74" value="" style="shape=partialRectangle;html=1;whiteSpace=wrap;connectable=0;fillColor=none;top=0;left=0;bottom=0;right=0;overflow=hidden;pointerEvents=1;fontColor=#FFB366;" vertex="1" parent="73">
                    <mxGeometry width="80" height="15" as="geometry">
                        <mxRectangle width="80" height="15" as="alternateBounds"/>
                    </mxGeometry>
                </mxCell>
                <mxCell id="75" value="" style="shape=partialRectangle;html=1;whiteSpace=wrap;connectable=0;fillColor=none;top=0;left=0;bottom=0;right=0;overflow=hidden;pointerEvents=1;fontColor=#FFB366;" vertex="1" parent="73">
                    <mxGeometry x="80" width="80" height="15" as="geometry">
                        <mxRectangle width="80" height="15" as="alternateBounds"/>
                    </mxGeometry>
                </mxCell>
                <mxCell id="76" value="" style="shape=partialRectangle;html=1;whiteSpace=wrap;connectable=0;fillColor=none;top=0;left=0;bottom=0;right=0;overflow=hidden;pointerEvents=1;fontColor=#FFB366;" vertex="1" parent="73">
                    <mxGeometry x="160" width="80" height="15" as="geometry">
                        <mxRectangle width="80" height="15" as="alternateBounds"/>
                    </mxGeometry>
                </mxCell>
                <mxCell id="77" value="" style="shape=partialRectangle;html=1;whiteSpace=wrap;collapsible=0;dropTarget=0;pointerEvents=0;fillColor=none;top=0;left=0;bottom=0;right=0;points=[[0,0.5],[1,0.5]];portConstraint=eastwest;fontColor=#FFB366;" vertex="1" parent="68">
                    <mxGeometry y="60" width="240" height="15" as="geometry"/>
                </mxCell>
                <mxCell id="78" value="" style="shape=partialRectangle;html=1;whiteSpace=wrap;connectable=0;fillColor=none;top=0;left=0;bottom=0;right=0;overflow=hidden;pointerEvents=1;fontColor=#FFB366;" vertex="1" parent="77">
                    <mxGeometry width="80" height="15" as="geometry">
                        <mxRectangle width="80" height="15" as="alternateBounds"/>
                    </mxGeometry>
                </mxCell>
                <mxCell id="79" value="" style="shape=partialRectangle;html=1;whiteSpace=wrap;connectable=0;fillColor=none;top=0;left=0;bottom=0;right=0;overflow=hidden;pointerEvents=1;fontColor=#FFB366;" vertex="1" parent="77">
                    <mxGeometry x="80" width="80" height="15" as="geometry">
                        <mxRectangle width="80" height="15" as="alternateBounds"/>
                    </mxGeometry>
                </mxCell>
                <mxCell id="80" value="" style="shape=partialRectangle;html=1;whiteSpace=wrap;connectable=0;fillColor=none;top=0;left=0;bottom=0;right=0;overflow=hidden;pointerEvents=1;fontColor=#FFB366;" vertex="1" parent="77">
                    <mxGeometry x="160" width="80" height="15" as="geometry">
                        <mxRectangle width="80" height="15" as="alternateBounds"/>
                    </mxGeometry>
                </mxCell>
                <mxCell id="81" value="open for edit" style="text;html=1;strokeColor=none;fillColor=none;align=center;verticalAlign=middle;whiteSpace=wrap;rounded=0;fontColor=#FFB366;" vertex="1" parent="67">
                    <mxGeometry x="5.45" y="75" width="74.55" height="25" as="geometry"/>
                </mxCell>
                <mxCell id="90" value="" style="group" vertex="1" connectable="0" parent="51">
                    <mxGeometry x="260" y="100" width="240" height="100" as="geometry"/>
                </mxCell>
                <mxCell id="91" value="Housing" style="shape=table;startSize=30;container=1;collapsible=0;childLayout=tableLayout;fontStyle=1;align=center;pointerEvents=1;fontColor=#FFB366;resizeHeight=1;resizeWidth=1;" vertex="1" parent="90">
                    <mxGeometry width="240" height="75" as="geometry"/>
                </mxCell>
                <mxCell id="92" value="" style="shape=partialRectangle;html=1;whiteSpace=wrap;collapsible=0;dropTarget=0;pointerEvents=0;fillColor=none;top=0;left=0;bottom=0;right=0;points=[[0,0.5],[1,0.5]];portConstraint=eastwest;fontColor=#FFB366;strokeColor=#FFB366;" vertex="1" parent="91">
                    <mxGeometry y="30" width="240" height="15" as="geometry"/>
                </mxCell>
                <mxCell id="93" value="" style="shape=partialRectangle;html=1;whiteSpace=wrap;connectable=0;fillColor=none;top=0;left=0;bottom=0;right=0;overflow=hidden;pointerEvents=1;fontColor=#FFB366;" vertex="1" parent="92">
                    <mxGeometry width="80" height="15" as="geometry">
                        <mxRectangle width="80" height="15" as="alternateBounds"/>
                    </mxGeometry>
                </mxCell>
                <mxCell id="94" value="" style="shape=partialRectangle;html=1;whiteSpace=wrap;connectable=0;fillColor=none;top=0;left=0;bottom=0;right=0;overflow=hidden;pointerEvents=1;fontColor=#FFB366;" vertex="1" parent="92">
                    <mxGeometry x="80" width="80" height="15" as="geometry">
                        <mxRectangle width="80" height="15" as="alternateBounds"/>
                    </mxGeometry>
                </mxCell>
                <mxCell id="95" value="" style="shape=partialRectangle;html=1;whiteSpace=wrap;connectable=0;fillColor=none;top=0;left=0;bottom=0;right=0;overflow=hidden;pointerEvents=1;fontColor=#FFB366;" vertex="1" parent="92">
                    <mxGeometry x="160" width="80" height="15" as="geometry">
                        <mxRectangle width="80" height="15" as="alternateBounds"/>
                    </mxGeometry>
                </mxCell>
                <mxCell id="96" value="" style="shape=partialRectangle;html=1;whiteSpace=wrap;collapsible=0;dropTarget=0;pointerEvents=0;fillColor=none;top=0;left=0;bottom=0;right=0;points=[[0,0.5],[1,0.5]];portConstraint=eastwest;fontColor=#FFB366;" vertex="1" parent="91">
                    <mxGeometry y="45" width="240" height="15" as="geometry"/>
                </mxCell>
                <mxCell id="97" value="" style="shape=partialRectangle;html=1;whiteSpace=wrap;connectable=0;fillColor=none;top=0;left=0;bottom=0;right=0;overflow=hidden;pointerEvents=1;fontColor=#FFB366;" vertex="1" parent="96">
                    <mxGeometry width="80" height="15" as="geometry">
                        <mxRectangle width="80" height="15" as="alternateBounds"/>
                    </mxGeometry>
                </mxCell>
                <mxCell id="98" value="" style="shape=partialRectangle;html=1;whiteSpace=wrap;connectable=0;fillColor=none;top=0;left=0;bottom=0;right=0;overflow=hidden;pointerEvents=1;fontColor=#FFB366;" vertex="1" parent="96">
                    <mxGeometry x="80" width="80" height="15" as="geometry">
                        <mxRectangle width="80" height="15" as="alternateBounds"/>
                    </mxGeometry>
                </mxCell>
                <mxCell id="99" value="" style="shape=partialRectangle;html=1;whiteSpace=wrap;connectable=0;fillColor=none;top=0;left=0;bottom=0;right=0;overflow=hidden;pointerEvents=1;fontColor=#FFB366;" vertex="1" parent="96">
                    <mxGeometry x="160" width="80" height="15" as="geometry">
                        <mxRectangle width="80" height="15" as="alternateBounds"/>
                    </mxGeometry>
                </mxCell>
                <mxCell id="100" value="" style="shape=partialRectangle;html=1;whiteSpace=wrap;collapsible=0;dropTarget=0;pointerEvents=0;fillColor=none;top=0;left=0;bottom=0;right=0;points=[[0,0.5],[1,0.5]];portConstraint=eastwest;fontColor=#FFB366;" vertex="1" parent="91">
                    <mxGeometry y="60" width="240" height="15" as="geometry"/>
                </mxCell>
                <mxCell id="101" value="" style="shape=partialRectangle;html=1;whiteSpace=wrap;connectable=0;fillColor=none;top=0;left=0;bottom=0;right=0;overflow=hidden;pointerEvents=1;fontColor=#FFB366;" vertex="1" parent="100">
                    <mxGeometry width="80" height="15" as="geometry">
                        <mxRectangle width="80" height="15" as="alternateBounds"/>
                    </mxGeometry>
                </mxCell>
                <mxCell id="102" value="" style="shape=partialRectangle;html=1;whiteSpace=wrap;connectable=0;fillColor=none;top=0;left=0;bottom=0;right=0;overflow=hidden;pointerEvents=1;fontColor=#FFB366;" vertex="1" parent="100">
                    <mxGeometry x="80" width="80" height="15" as="geometry">
                        <mxRectangle width="80" height="15" as="alternateBounds"/>
                    </mxGeometry>
                </mxCell>
                <mxCell id="103" value="" style="shape=partialRectangle;html=1;whiteSpace=wrap;connectable=0;fillColor=none;top=0;left=0;bottom=0;right=0;overflow=hidden;pointerEvents=1;fontColor=#FFB366;" vertex="1" parent="100">
                    <mxGeometry x="160" width="80" height="15" as="geometry">
                        <mxRectangle width="80" height="15" as="alternateBounds"/>
                    </mxGeometry>
                </mxCell>
                <mxCell id="104" value="open for edit" style="text;html=1;strokeColor=none;fillColor=none;align=center;verticalAlign=middle;whiteSpace=wrap;rounded=0;fontColor=#FFB366;" vertex="1" parent="90">
                    <mxGeometry x="5.45" y="75" width="74.55" height="25" as="geometry"/>
                </mxCell>
                <mxCell id="88" value="" style="group" vertex="1" connectable="0" parent="108">
                    <mxGeometry width="370" height="20" as="geometry"/>
                </mxCell>
                <mxCell id="82" value="once per/" style="rounded=0;whiteSpace=wrap;html=1;fontColor=#FFB366;strokeColor=#FFB366;" vertex="1" parent="88">
                    <mxGeometry x="250" width="60" height="20" as="geometry"/>
                </mxCell>
                <mxCell id="83" value="(date)" style="rounded=0;whiteSpace=wrap;html=1;fontColor=#FFB366;strokeColor=#FFB366;" vertex="1" parent="88">
                    <mxGeometry x="310" width="60" height="20" as="geometry"/>
                </mxCell>
                <mxCell id="84" value="category" style="rounded=0;whiteSpace=wrap;html=1;fontColor=#FFB366;strokeColor=#FFB366;" vertex="1" parent="88">
                    <mxGeometry x="70" width="60" height="20" as="geometry"/>
                </mxCell>
                <mxCell id="85" value="subcateg." style="rounded=0;whiteSpace=wrap;html=1;fontColor=#FFB366;strokeColor=#FFB366;" vertex="1" parent="88">
                    <mxGeometry x="130" width="60" height="20" as="geometry"/>
                </mxCell>
                <mxCell id="86" value="thing" style="rounded=0;whiteSpace=wrap;html=1;fontColor=#FFB366;strokeColor=#FFB366;" vertex="1" parent="88">
                    <mxGeometry width="70" height="20" as="geometry"/>
                </mxCell>
                <mxCell id="87" value="amount" style="rounded=0;whiteSpace=wrap;html=1;fontColor=#FFB366;strokeColor=#FFB366;" vertex="1" parent="88">
                    <mxGeometry x="190" width="60" height="20" as="geometry"/>
                </mxCell>
                <mxCell id="89" value="Add" style="shape=delay;whiteSpace=wrap;html=1;fontColor=#FFFFFF;strokeColor=#FFB366;fillColor=#FFB366;" vertex="1" parent="108">
                    <mxGeometry x="380" width="50" height="20" as="geometry"/>
                </mxCell>
            </root>
        </mxGraphModel>
    </diagram>
</mxfile>